<svg width="1024" height="1024" viewBox="0 0 1024 1024" fill="none" xmlns="http://www.w3.org/2000/svg">
<path fill-rule="evenodd" clip-rule="evenodd" d="M838.152 883.096H823.304V853.406C823.293 850.545 822.455 847.747 820.89 845.349C819.325 842.954 817.101 841.061 814.485 839.9C830.192 794.671 838.193 747.129 838.152 699.254V265.371C838.178 217.442 830.147 169.849 814.396 124.578C818.556 122.773 821.655 119.155 822.799 114.766L837.648 55.3919C838.735 50.978 837.737 46.3033 834.939 42.7183C832.142 39.1292 827.854 37.0252 823.304 37H199.695C195.122 37 190.804 39.1082 187.99 42.7142C185.177 46.3159 184.182 51.0157 185.293 55.4506L200.141 114.825C201.314 119.205 204.435 122.799 208.604 124.578C192.853 169.849 184.822 217.442 184.848 265.371V699.254C184.807 747.129 192.808 794.671 208.515 839.9C205.899 841.061 203.675 842.954 202.11 845.349C200.545 847.747 199.707 850.545 199.695 853.406V883.096H184.848C180.91 883.096 177.133 884.657 174.349 887.442C171.564 890.228 170 894.002 170 897.936V972.155C170 976.094 171.564 979.868 174.349 982.653C177.133 985.435 180.91 987 184.848 987H838.152C842.09 987 845.867 985.435 848.651 982.653C851.436 979.868 853 976.094 853 972.155V897.936C853 894.002 851.435 890.228 848.651 887.442C845.867 884.657 842.09 883.096 838.152 883.096ZM384.625 564.92C380.231 557.964 377.89 549.911 377.87 541.689C377.87 531.246 381.551 521.143 388.267 513.149C394.982 505.15 404.303 499.781 414.588 497.972C418.927 497.202 422.698 494.538 424.881 490.713C427.063 486.884 427.432 482.281 425.887 478.158C420.675 464.769 421.356 449.802 427.761 436.939C434.167 424.076 445.704 414.517 459.533 410.603C463.345 409.451 466.535 406.817 468.386 403.295C470.237 399.769 470.594 395.645 469.377 391.854C467.869 387.528 467.053 382.989 466.956 378.406C466.956 362.497 475.446 347.795 489.228 339.843C503.01 331.886 519.989 331.886 533.771 339.843C547.554 347.795 556.043 362.497 556.043 378.406C555.967 382.496 555.318 386.552 554.113 390.461C552.967 394.526 553.608 398.889 555.875 402.453C558.143 406.017 561.822 408.449 565.992 409.135C579.812 411.42 592.37 418.543 601.426 429.226C610.482 439.91 615.447 453.463 615.435 467.47C615.399 468.43 615.295 469.389 615.123 470.336L614.767 473.302C614.283 478.082 616.141 482.799 619.755 485.963C635.252 499.432 644.405 518.766 644.997 539.282C645.167 544.412 647.975 549.086 652.421 551.649C673.726 563.944 687.557 585.988 689.352 610.514C691.147 635.041 680.672 658.865 661.383 674.126C642.093 689.387 616.495 694.108 593.029 686.728C590.206 685.828 587.18 685.794 584.338 686.631C581.496 687.469 578.97 689.134 577.083 691.415C570.097 699.961 559.656 704.931 548.62 704.969C539.51 704.947 530.736 701.531 524.017 695.379C521.466 693.098 518.204 691.768 514.784 691.613C511.364 691.457 507.995 692.493 505.249 694.533C494.344 702.478 480.784 705.889 467.416 704.055C454.047 702.22 441.909 695.282 433.549 684.692C431.247 681.734 427.909 679.756 424.207 679.154C420.505 678.557 416.714 679.377 413.594 681.456C405.223 687.077 395.376 690.094 385.294 690.128C367.955 690.145 351.751 681.515 342.09 667.12C332.428 652.73 330.583 634.469 337.17 618.433C343.757 602.402 357.909 590.709 374.9 587.259C379.658 586.295 383.646 583.072 385.578 578.616C387.511 574.164 387.143 569.052 384.625 564.92ZM496.652 731.123C502.505 729.579 508.156 727.353 513.489 724.488C517.545 726.97 521.857 729.011 526.348 730.576V838.562H496.652V731.123ZM556.043 733.959C569.85 732.461 582.836 726.663 593.163 717.381C623.904 724.122 656.046 716.573 680.571 696.856C705.096 677.139 719.364 647.369 719.37 615.909C719.282 581.641 702.358 549.604 674.099 530.215C671.493 507.182 661.303 485.669 645.13 469.057C645.13 468.539 645.13 468.005 645.13 467.47C645.159 449.028 639.431 431.036 628.745 416.002C618.058 400.968 602.947 389.641 585.517 383.603C585.665 381.865 585.739 380.127 585.739 378.406C585.739 358.723 577.917 339.848 563.995 325.929C550.072 312.01 531.189 304.187 511.5 304.187C491.811 304.187 472.928 312.01 459.005 325.929C445.083 339.848 437.261 358.723 437.261 378.406C437.264 381.385 437.472 384.364 437.884 387.314C424.295 393.987 412.856 404.347 404.87 417.206C396.884 430.068 392.673 444.913 392.717 460.048C392.722 464.483 393.109 468.905 393.876 473.273C380.341 478.878 368.773 488.366 360.638 500.547C352.502 512.724 348.165 527.042 348.174 541.689C348.185 549.192 349.357 556.648 351.648 563.792C328.8 574.126 311.968 594.382 305.996 618.732C300.025 643.086 305.576 668.829 321.053 688.554C336.529 708.284 360.215 719.809 385.294 719.813C396.849 719.809 408.267 717.301 418.761 712.466C432.003 724.74 448.964 732.246 466.956 733.795V838.562H239.577C222.981 793.994 214.503 746.814 214.544 699.254L214.543 541.689H288.783C292.72 541.689 296.496 540.124 299.28 537.339L328.975 507.654L307.981 486.661L282.636 512H214.543V408.096H327.179L352.524 433.434L373.519 412.442L343.823 382.757C341.04 379.971 337.263 378.406 333.326 378.406H214.543V265.371C214.503 217.812 222.981 170.636 239.577 126.064H783.423C800.018 170.636 808.496 217.812 808.456 265.371V422.936H704.522C700.584 422.941 696.808 424.501 694.024 427.287L664.329 456.976L685.324 477.964L710.669 452.626H808.456V699.254C808.456 706.142 807.892 712.971 807.551 719.813H725.516L715.019 709.319L694.024 730.307L708.872 745.151C711.656 747.937 715.432 749.498 719.37 749.502H804.923C803.049 764.486 800.322 779.356 796.756 794.032H645.13V823.722H788.204C786.586 828.661 785.234 833.664 783.423 838.562H556.043V733.959ZM804.285 66.6892L796.86 96.3746H226.139L218.716 66.6892H804.285ZM229.391 868.251H793.609V883.096H229.391V868.251ZM823.304 957.311H199.695V912.781H823.304V957.311Z" fill="black" style="fill:black;fill-opacity:1;"/>
<path fill-rule="evenodd" clip-rule="evenodd" d="M600.171 647.42C614.99 653.205 631.77 650.647 644.193 640.712C656.616 630.778 662.797 614.974 660.409 599.25C659.525 594.091 655.987 589.778 651.097 587.902C646.208 586.021 640.691 586.859 636.578 590.103C632.466 593.347 630.367 598.514 631.055 603.706C631.852 608.945 629.793 614.212 625.653 617.528C621.513 620.84 615.92 621.694 610.98 619.767C607.291 618.231 603.136 618.243 599.458 619.809C595.78 621.374 592.888 624.357 591.436 628.077C589.985 631.801 590.097 635.953 591.746 639.593C593.396 643.233 596.444 646.056 600.171 647.42Z" fill="black" style="fill:black;fill-opacity:1;"/>
<path fill-rule="evenodd" clip-rule="evenodd" d="M466.333 496.743C467.083 496.748 467.833 496.693 468.575 496.579C472.467 495.99 475.965 493.878 478.301 490.709C480.638 487.541 481.62 483.577 481.032 479.685C480.503 476.235 481.208 472.709 483.022 469.726C484.836 466.747 487.643 464.495 490.95 463.376C494.258 462.261 497.854 462.341 501.107 463.611C504.777 465.034 508.863 464.946 512.468 463.364C516.072 461.782 518.9 458.832 520.329 455.163C521.758 451.494 521.671 447.408 520.087 443.806C518.503 440.201 515.553 437.377 511.884 435.947C497.064 430.157 480.28 432.715 467.856 442.653C455.432 452.588 449.254 468.396 451.648 484.124C452.181 487.637 453.956 490.839 456.65 493.154C459.345 495.468 462.78 496.743 466.333 496.743Z" fill="black" style="fill:black;fill-opacity:1;"/>
<path fill-rule="evenodd" clip-rule="evenodd" d="M469.569 624.248C471.786 624.256 474 624.092 476.191 623.76C481.352 622.872 485.665 619.338 487.542 614.448C489.419 609.563 488.582 604.047 485.339 599.936C482.097 595.83 476.929 593.73 471.737 594.415C466.495 595.211 461.225 593.153 457.912 589.013C454.599 584.877 453.745 579.285 455.672 574.345C457.591 569.401 456.733 563.809 453.415 559.673C450.098 555.537 444.825 553.484 439.583 554.287C434.341 555.091 429.925 558.629 428.001 563.569C422.645 577.282 424.421 592.758 432.739 604.901C441.058 617.049 454.844 624.303 469.569 624.248Z" fill="black" style="fill:black;fill-opacity:1;"/>
<path fill-rule="evenodd" clip-rule="evenodd" d="M749.065 363.491C749.065 371.721 742.377 378.407 734.143 378.407C725.909 378.407 719.221 371.721 719.221 363.491C719.221 355.256 725.909 348.57 734.143 348.57C742.377 348.57 749.065 355.256 749.065 363.491Z" fill="black" style="fill:black;fill-opacity:1;"/>
<path fill-rule="evenodd" clip-rule="evenodd" d="M674.826 304.116C674.826 312.346 668.138 319.032 659.904 319.032C651.67 319.032 644.982 312.346 644.982 304.116C644.982 295.882 651.67 289.196 659.904 289.196C668.138 289.196 674.826 295.882 674.826 304.116Z" fill="black" style="fill:black;fill-opacity:1;"/>
<path fill-rule="evenodd" clip-rule="evenodd" d="M749.065 229.896C749.065 238.127 742.377 244.812 734.143 244.812C725.909 244.812 719.221 238.127 719.221 229.896C719.221 221.662 725.909 214.976 734.143 214.976C742.377 214.976 749.065 221.662 749.065 229.896Z" fill="black" style="fill:black;fill-opacity:1;"/>
<path fill-rule="evenodd" clip-rule="evenodd" d="M645.131 170.522C645.131 178.753 638.442 185.438 630.208 185.438C621.974 185.438 615.286 178.753 615.286 170.522C615.286 162.288 621.974 155.602 630.208 155.602C638.442 155.602 645.131 162.288 645.131 170.522Z" fill="black" style="fill:black;fill-opacity:1;"/>
<path fill-rule="evenodd" clip-rule="evenodd" d="M407.565 289.271C407.565 297.502 400.877 304.187 392.643 304.187C384.409 304.187 377.721 297.502 377.721 289.271C377.721 281.041 384.409 274.355 392.643 274.355C400.877 274.355 407.565 281.041 407.565 289.271Z" fill="black" style="fill:black;fill-opacity:1;"/>
<path fill-rule="evenodd" clip-rule="evenodd" d="M303.63 274.426C303.63 282.656 296.942 289.342 288.708 289.342C280.475 289.342 273.786 282.656 273.786 274.426C273.786 266.196 280.475 259.51 288.708 259.51C296.942 259.51 303.63 266.196 303.63 274.426Z" fill="black" style="fill:black;fill-opacity:1;"/>
<path fill-rule="evenodd" clip-rule="evenodd" d="M437.261 200.208C437.261 208.442 430.572 215.128 422.339 215.128C414.105 215.128 407.417 208.442 407.417 200.208C407.417 191.977 414.105 185.291 422.339 185.291C430.572 185.291 437.261 191.977 437.261 200.208Z" fill="black" style="fill:black;fill-opacity:1;"/>
<path fill-rule="evenodd" clip-rule="evenodd" d="M585.739 794.033H615.434V823.722H585.739V794.033Z" fill="black" style="fill:black;fill-opacity:1;"/>
<path fill-rule="evenodd" clip-rule="evenodd" d="M303.63 779.187H437.261V808.877H303.63V779.187Z" fill="black" style="fill:black;fill-opacity:1;"/>
<path fill-rule="evenodd" clip-rule="evenodd" d="M244.239 779.187H273.935V808.877H244.239V779.187Z" fill="black" style="fill:black;fill-opacity:1;"/>
</svg>
